<svg width="70" height="70" viewBox="0 0 70 70" fill="none" xmlns="http://www.w3.org/2000/svg">
<path d="M28.5113 55.8585C21.4465 62.9689 9.44092 65.3236 2.51465 58.2132C11.7497 48.6557 2.51465 44.0387 9.44092 37.113C10.6571 35.7583 12.1368 34.6659 13.7895 33.9024C15.4422 33.1389 17.2333 32.7205 19.0532 32.6726C20.8732 32.6247 22.6838 32.9484 24.3743 33.6239C26.0649 34.2994 27.6 35.3125 28.8858 36.6013C30.1715 37.8901 31.181 39.4275 31.8524 41.1196C32.5238 42.8117 32.8431 44.6229 32.7908 46.4428C32.7384 48.2624 32.3155 50.052 31.548 51.7031C30.7804 53.3537 29.6843 54.8302 28.3266 56.0432L28.5113 55.8585Z" stroke="#DFDFDF" stroke-width="5" stroke-linecap="round" stroke-linejoin="round"/>
<path d="M21.8855 32.893L46.3809 5.57682C49.863 1.66291 56.1479 1.46914 59.8641 5.16128C63.5585 8.87738 63.3641 15.1621 59.4485 18.6433L32.4054 42.8571" stroke="#DFDFDF" stroke-width="5" stroke-linecap="round" stroke-linejoin="round"/>
</svg>
